<svg width="316" height="89" viewBox="0 0 316 89" fill="none" xmlns="http://www.w3.org/2000/svg">
<path d="M59.6 18.3187C64.9688 18.3187 69.3498 22.6782 69.3498 28.0686V55.1491C69.3498 60.518 64.9903 64.899 59.6 64.899H57.1947V85L39.5419 64.899H13.7499C8.38099 64.899 4 60.5395 4 55.1491V28.0686C4 22.6997 8.35952 18.3187 13.7499 18.3187" stroke="white" stroke-width="6.44264" stroke-miterlimit="10" stroke-linecap="round" stroke-linejoin="round"/>
<path d="M28.2676 10.7377V24.1598" stroke="white" stroke-width="6.44264" stroke-miterlimit="10" stroke-linecap="round" stroke-linejoin="round"/>
<path d="M44.9316 10.7377V24.1598" stroke="white" stroke-width="6.44264" stroke-miterlimit="10" stroke-linecap="round" stroke-linejoin="round"/>
<path d="M48.2394 41.0608L36.2132 47.2028C30.9946 49.7583 27.9666 47.6967 25.1104 42.8862" stroke="white" stroke-width="6.44264" stroke-miterlimit="10" stroke-linecap="round" stroke-linejoin="round"/>
<path d="M107.363 58.6378C105.662 58.6378 104.135 58.2513 102.783 57.4781C101.43 56.6664 100.367 55.5067 99.5934 53.9991C98.8203 52.4915 98.4338 50.7134 98.4338 48.6646V33.9367H93.5631V29.0081H95.7085C96.8682 29.0081 97.7379 28.7182 98.3178 28.1384C98.9363 27.5585 99.2455 26.6888 99.2455 25.5291V21.1803H104.174V28.7182H110.61V33.9367H104.174V48.3167C104.174 49.9789 104.561 51.2352 105.334 52.0857C106.146 52.8974 107.247 53.3033 108.639 53.3033C109.373 53.3033 110.03 53.168 110.61 52.8974V58.116C110.224 58.2706 109.76 58.3866 109.219 58.4639C108.678 58.5798 108.059 58.6378 107.363 58.6378ZM128.468 58.6378C125.917 58.6378 123.54 57.9807 121.336 56.6664C119.133 55.3134 117.374 53.4579 116.06 51.0999C114.784 48.7419 114.146 46.1713 114.146 43.3881C114.146 40.5662 114.784 37.9956 116.06 35.6763C117.374 33.3183 119.133 31.4628 121.336 30.1098C123.54 28.7569 125.917 28.0804 128.468 28.0804C131.02 28.0804 133.397 28.7569 135.6 30.1098C137.804 31.4628 139.543 33.3183 140.819 35.6763C142.133 37.9956 142.79 40.5662 142.79 43.3881C142.79 46.1713 142.133 48.7419 140.819 51.0999C139.543 53.4579 137.804 55.3134 135.6 56.6664C133.397 57.9807 131.02 58.6378 128.468 58.6378ZM128.468 53.3613C130.053 53.3613 131.503 52.9361 132.817 52.0857C134.132 51.2352 135.175 50.0562 135.948 48.5486C136.721 47.0411 137.108 45.3209 137.108 43.3881C137.108 41.4553 136.721 39.7351 135.948 38.2275C135.175 36.6813 134.132 35.5023 132.817 34.6905C131.503 33.8401 130.053 33.4149 128.468 33.4149C126.884 33.4149 125.434 33.8401 124.12 34.6905C122.805 35.5023 121.762 36.6813 120.989 38.2275C120.215 39.7351 119.829 41.4553 119.829 43.3881C119.829 45.3209 120.215 47.0411 120.989 48.5486C121.762 50.0562 122.805 51.2352 124.12 52.0857C125.434 52.9361 126.884 53.3613 128.468 53.3613ZM161.195 69.0169C158.682 69.0169 156.498 68.553 154.643 67.6253C152.787 66.6976 151.338 65.5379 150.294 64.1463C149.25 62.7933 148.554 61.3824 148.206 59.9135H154.063C154.488 61.0731 155.319 62.0202 156.556 62.7547C157.793 63.4891 159.32 63.8564 161.137 63.8564C163.456 63.8564 165.292 63.1799 166.645 61.8269C168.037 60.5126 168.733 58.7345 168.733 56.4924V52.9554H168.443C168.134 53.4579 167.592 54.0184 166.819 54.6369C166.046 55.2554 165.08 55.7966 163.92 56.2605C162.799 56.7244 161.562 56.9563 160.209 56.9563C157.812 56.9563 155.609 56.3185 153.599 55.0428C151.589 53.7672 149.985 52.0277 148.786 49.8243C147.588 47.6209 146.989 45.1856 146.989 42.5183C146.989 39.8511 147.588 37.4158 148.786 35.2124C149.985 33.009 151.589 31.2695 153.599 29.9939C155.609 28.7182 157.793 28.0804 160.151 28.0804C161.581 28.0804 162.876 28.3123 164.036 28.7762C165.234 29.2401 166.22 29.8006 166.993 30.4577C167.805 31.1149 168.385 31.6947 168.733 32.1972H169.023L170.182 28.7182H174.415V56.4344C174.415 58.9471 173.874 61.1505 172.792 63.0446C171.709 64.9774 170.163 66.4463 168.153 67.4514C166.181 68.4951 163.862 69.0169 161.195 69.0169ZM160.673 51.7957C162.103 51.7957 163.437 51.3899 164.674 50.5781C165.911 49.7663 166.897 48.6646 167.631 47.273C168.365 45.8427 168.733 44.2579 168.733 42.5183C168.733 40.7788 168.365 39.2133 167.631 37.8217C166.897 36.3914 165.911 35.2704 164.674 34.4586C163.437 33.6468 162.103 33.2409 160.673 33.2409C159.243 33.2409 157.909 33.6468 156.672 34.4586C155.474 35.2704 154.507 36.3914 153.773 37.8217C153.038 39.2133 152.671 40.7788 152.671 42.5183C152.671 44.2579 153.038 45.8427 153.773 47.273C154.507 48.6646 155.474 49.7663 156.672 50.5781C157.909 51.3899 159.243 51.7957 160.673 51.7957ZM194.663 58.6378C192.034 58.6378 189.618 57.9807 187.415 56.6664C185.211 55.3521 183.472 53.5353 182.196 51.2159C180.959 48.8579 180.341 46.2486 180.341 43.3881C180.341 40.5662 180.979 37.9956 182.254 35.6763C183.53 33.3183 185.269 31.4628 187.473 30.1098C189.676 28.7569 192.053 28.0804 194.605 28.0804C197.156 28.0804 199.475 28.7182 201.563 29.9939C203.689 31.2695 205.351 33.0283 206.549 35.2704C207.748 37.5124 208.347 39.9864 208.347 42.6923C208.347 43.3108 208.308 43.8906 208.231 44.4318C208.192 44.9343 208.134 45.3595 208.057 45.7074H184.69V41.2427H204.462L202.549 44.8957C202.665 44.5478 202.742 44.2192 202.78 43.9099C202.858 43.562 202.896 43.2335 202.896 42.9242C202.896 41.1074 202.529 39.4645 201.795 37.9956C201.099 36.5267 200.113 35.367 198.838 34.5166C197.562 33.6662 196.151 33.2409 194.605 33.2409C193.02 33.2409 191.551 33.6662 190.198 34.5166C188.884 35.367 187.84 36.5653 187.067 38.1116C186.294 39.6578 185.907 41.3973 185.907 43.3301C185.907 45.4175 186.274 47.2344 187.009 48.7806C187.743 50.2882 188.768 51.4478 190.082 52.2596C191.435 53.0714 192.962 53.4773 194.663 53.4773C196.248 53.4773 197.581 53.168 198.664 52.5495C199.785 51.931 200.693 51.0806 201.389 49.9982H207.303C206.723 51.5058 205.815 52.9168 204.578 54.2311C203.38 55.5454 201.911 56.6084 200.171 57.4202C198.47 58.2319 196.634 58.6378 194.663 58.6378ZM224.52 58.6378C222.819 58.6378 221.292 58.2513 219.939 57.4781C218.586 56.6664 217.523 55.5067 216.75 53.9991C215.977 52.4915 215.59 50.7134 215.59 48.6646V33.9367H210.72V29.0081H212.865C214.025 29.0081 214.895 28.7182 215.474 28.1384C216.093 27.5585 216.402 26.6888 216.402 25.5291V21.1803H221.331V28.7182H227.767V33.9367H221.331V48.3167C221.331 49.9789 221.717 51.2352 222.49 52.0857C223.302 52.8974 224.404 53.3033 225.796 53.3033C226.53 53.3033 227.187 53.168 227.767 52.8974V58.116C227.38 58.2706 226.917 58.3866 226.375 58.4639C225.834 58.5798 225.216 58.6378 224.52 58.6378ZM233.899 58V17.4114H239.581V32.1972H239.871C240.258 31.6174 240.837 31.0182 241.611 30.3997C242.422 29.7426 243.389 29.2014 244.51 28.7762C245.631 28.3123 246.848 28.0804 248.163 28.0804C250.327 28.0804 252.28 28.6022 254.019 29.6459C255.759 30.6897 257.112 32.1972 258.078 34.1687C259.083 36.1015 259.586 38.3435 259.586 40.8948V58H253.903V41.1847C253.903 39.6385 253.594 38.2855 252.975 37.1259C252.357 35.9275 251.506 35.0191 250.424 34.4006C249.38 33.7435 248.182 33.4149 246.829 33.4149C245.438 33.4149 244.181 33.7435 243.06 34.4006C241.978 35.0191 241.127 35.9275 240.509 37.1259C239.89 38.2855 239.581 39.6385 239.581 41.1847V58H233.899ZM279.543 58.6378C276.915 58.6378 274.499 57.9807 272.295 56.6664C270.092 55.3521 268.352 53.5353 267.077 51.2159C265.84 48.8579 265.221 46.2486 265.221 43.3881C265.221 40.5662 265.859 37.9956 267.135 35.6763C268.41 33.3183 270.15 31.4628 272.353 30.1098C274.557 28.7569 276.934 28.0804 279.485 28.0804C282.037 28.0804 284.356 28.7182 286.443 29.9939C288.569 31.2695 290.232 33.0283 291.43 35.2704C292.628 37.5124 293.227 39.9864 293.227 42.6923C293.227 43.3108 293.189 43.8906 293.111 44.4318C293.073 44.9343 293.015 45.3595 292.938 45.7074H269.57V41.2427H289.343L287.429 44.8957C287.545 44.5478 287.622 44.2192 287.661 43.9099C287.738 43.562 287.777 43.2335 287.777 42.9242C287.777 41.1074 287.41 39.4645 286.675 37.9956C285.979 36.5267 284.994 35.367 283.718 34.5166C282.442 33.6662 281.032 33.2409 279.485 33.2409C277.9 33.2409 276.431 33.6662 275.079 34.5166C273.764 35.367 272.721 36.5653 271.947 38.1116C271.174 39.6578 270.788 41.3973 270.788 43.3301C270.788 45.4175 271.155 47.2344 271.889 48.7806C272.624 50.2882 273.648 51.4478 274.963 52.2596C276.316 53.0714 277.842 53.4773 279.543 53.4773C281.128 53.4773 282.462 53.168 283.544 52.5495C284.665 51.931 285.574 51.0806 286.269 49.9982H292.184C291.604 51.5058 290.695 52.9168 289.458 54.2311C288.26 55.5454 286.791 56.6084 285.052 57.4202C283.351 58.2319 281.515 58.6378 279.543 58.6378ZM299.124 58V28.7182H303.356L304.516 32.1972H304.806C305.463 31.2308 306.449 30.3031 307.763 29.414C309.078 28.5249 310.546 28.0804 312.17 28.0804C312.634 28.0804 313.059 28.0997 313.446 28.1384C313.832 28.177 314.199 28.235 314.547 28.3123V34.0527C313.89 33.8594 313.078 33.7628 312.112 33.7628C310.682 33.7628 309.406 34.0914 308.285 34.7485C307.203 35.367 306.352 36.2754 305.734 37.4738C305.115 38.6721 304.806 40.083 304.806 41.7066V58H299.124Z" fill="white"/>
</svg>
